<svg width="16" height="16" viewBox="0 0 16 16" fill="none" xmlns="http://www.w3.org/2000/svg">
<path d="M15.3389 11.8422L13.7414 10.2446C13.4522 9.95563 13.0901 9.75055 12.6936 9.65124C12.297 9.55192 11.881 9.5621 11.4898 9.68068C11.0986 9.79926 10.7469 10.0218 10.4722 10.3246C10.1976 10.6273 10.0103 10.999 9.93023 11.3998C7.2958 10.9072 4.73356 8.3555 4.57408 6.07476C5.02195 5.99237 5.43412 5.7756 5.75581 5.45328C6.17935 5.02968 6.41729 4.45519 6.41729 3.85616C6.41729 3.25714 6.17935 2.68265 5.75581 2.25905L4.15869 0.661484C3.73509 0.23794 3.1606 0 2.56158 0C1.96256 0 1.38807 0.23794 0.96447 0.661484C-3.82732 5.45328 10.5471 19.8277 15.3389 15.0359C15.7622 14.6123 16 14.0379 16 13.4391C16 12.8402 15.7622 12.2658 15.3389 11.8422Z" fill="white"/>
</svg>
