<svg width="16" height="26" viewBox="0 0 16 26" fill="none" xmlns="http://www.w3.org/2000/svg">
<path d="M15.3803 21.9458C15.5824 22.1247 15.7413 22.3366 15.8477 22.5692C15.954 22.8018 16.0056 23.0503 15.9995 23.3003C15.9934 23.5503 15.9298 23.7968 15.8122 24.0253C15.6947 24.2538 15.5256 24.4597 15.3149 24.6311C15.1042 24.8025 14.8561 24.9359 14.585 25.0236C14.314 25.1112 14.0255 25.1512 13.7363 25.1414C13.4472 25.1316 13.1632 25.072 12.9009 24.9663C12.6387 24.8606 12.4035 24.7107 12.209 24.5256L0.592737 13.8601C0.212064 13.5116 0 13.0506 0 12.5714C0 12.0922 0.212064 11.6312 0.592737 11.2828L12.209 0.617302C12.4035 0.432123 12.6387 0.282287 12.9009 0.176548C13.1632 0.0708083 13.4472 0.0112851 13.7363 0.00145491C14.0255 -0.00837524 14.314 0.031685 14.585 0.119295C14.8561 0.206906 15.1042 0.34031 15.3149 0.511715C15.5256 0.683119 15.6947 0.889088 15.8122 1.11759C15.9298 1.34609 15.9934 1.59254 15.9995 1.84255C16.0056 2.09256 15.954 2.34111 15.8477 2.57368C15.7413 2.80625 15.5824 3.01818 15.3803 3.19709L5.16956 12.5702L15.3803 21.9458Z" fill="#5CB85C"/>
</svg>
