<svg width="11" height="17" viewBox="0 0 11 17" fill="none" xmlns="http://www.w3.org/2000/svg">
<path d="M0.495842 14.8383C0.358615 14.9593 0.250768 15.1026 0.1786 15.2598C0.106432 15.4171 0.0713905 15.5851 0.0755225 15.7542C0.0796545 15.9232 0.122877 16.0899 0.202666 16.2444C0.282454 16.3989 0.397208 16.5381 0.540224 16.654C0.683241 16.7699 0.851653 16.8601 1.03562 16.9193C1.21959 16.9786 1.41543 17.0057 1.6117 16.999C1.80796 16.9924 2.00072 16.9521 2.17872 16.8806C2.35671 16.8091 2.51637 16.7078 2.64837 16.5826L10.5331 9.3713C10.7915 9.13571 10.9354 8.82399 10.9354 8.5C10.9354 8.17601 10.7915 7.86429 10.5331 7.6287L2.64837 0.41738C2.51637 0.292174 2.35671 0.190865 2.17872 0.11937C2.00072 0.047876 1.80796 0.00763023 1.6117 0.000983715C1.41543 -0.0056628 1.21959 0.0214234 1.03562 0.0806599C0.851653 0.139896 0.683241 0.230096 0.540224 0.345989C0.397208 0.461882 0.282454 0.601145 0.202666 0.755643C0.122877 0.910141 0.0796545 1.07678 0.0755225 1.24582C0.0713905 1.41485 0.106432 1.58291 0.1786 1.74016C0.250768 1.89741 0.358615 2.0407 0.495842 2.16167L7.42651 8.49915L0.495842 14.8383Z" fill="#5CB85C"/>
</svg>
