<svg width="40" height="74" viewBox="0 0 40 74" fill="none" xmlns="http://www.w3.org/2000/svg">
<path d="M39.1001 0.901552C38.579 0.380404 37.8883 0.0635408 37.1534 0.00857572C36.4185 -0.0463894 35.6883 0.164194 35.0956 0.602037L34.7509 0.901552L0.901554 34.7509C0.380405 35.2719 0.0635414 35.9627 0.00857544 36.6976C-0.0463905 37.4324 0.164196 38.1626 0.602039 38.7554L0.901554 39.1001L34.7509 72.9494C35.3007 73.4949 36.036 73.8131 36.81 73.8403C37.5841 73.8676 38.3399 73.602 38.9267 73.0965C39.5135 72.591 39.8881 71.8828 39.9758 71.1133C40.0634 70.3437 39.8577 69.5695 39.3996 68.9449L39.1001 68.6003L7.42525 36.9255L39.1001 5.25068C39.6763 4.6737 40 3.89158 40 3.07612C40 2.26065 39.6763 1.47853 39.1001 0.901552Z" fill="#C7C7C7"/>
</svg>
