<svg width="1920" height="1824" viewBox="0 0 1920 1824" fill="none" xmlns="http://www.w3.org/2000/svg">
<g opacity="0.6">
<rect x="-4" y="44.5469" width="1920" height="1779" fill="#F0F4F9"/>
<mask id="mask0_108_1262" style="mask-type:alpha" maskUnits="userSpaceOnUse" x="-4" y="12" width="1920" height="1277">
<rect x="-4" y="12" width="1920" height="1277" fill="#F0F4F9"/>
</mask>
<g mask="url(#mask0_108_1262)">
<path d="M1380.16 1394.73C1357.43 1340.57 1326.97 1262.31 1334.99 1181.03C1339.42 1124.68 1360.17 1100.02 1388.55 1091.53C1431.74 1078.56 1469.46 1099.93 1469.46 1141.02C1469.46 1173.45 1437.68 1200.39 1402.23 1199.38C1406.47 1238.01 1482.29 1279.11 1562.54 1241.57C1660.61 1195.91 1704.74 1001.94 1558.39 795.722C1414.11 592.431 1279.63 447.497 1019.65 267.494C731.372 67.673 327.578 -64.4754 -7 63.3807C1.69389 66.5998 10.1943 70.289 18.4611 74.4311C310.792 8.31124 574.268 89.4085 822.278 258.909C1080.28 435.35 1207.4 661.838 1096.97 741.657C1064.69 764.137 1025.84 776.069 986.078 775.721C1009.09 814.718 1026.63 847.412 1059.35 911.432C1134.22 1057.55 1166.19 1259.02 1229.09 1367.51C1384.78 1637.01 1523.12 1632.36 1615.72 1602.04C1533.02 1573.09 1441.27 1541.31 1380.16 1394.73Z" fill="#E7EAEF"/>
</g>
<path d="M41.9434 88.0385L49.3931 90.5043C522.404 214.616 798.798 491.424 965.993 743.301C1000.51 744.412 1034.35 733.854 1061.71 713.437C1150.54 647.135 1036.44 452.976 790.783 277.357C559.841 112.331 252.139 31.0513 41.9434 88.0385Z" fill="#E7EAEF"/>
<path d="M1002.01 997.276C997.109 970.975 955.616 857.457 896.207 783.94C748.721 791.154 610.288 787.867 368.125 710.879C515.139 949.787 801.058 1022.3 1002.01 997.276Z" fill="#E7EAEF"/>
<path d="M1536.32 624.76C1472.13 564.952 1402.43 510.938 1328.11 463.387C1387.05 475.899 1858.08 448.958 1675.6 39.8184C1713.32 64.2023 1896.55 236.717 1782.26 430.693C1758.68 470.876 1719.64 540.649 1536.32 624.76Z" fill="#E7EAEF"/>
<path d="M1670.79 21.3702C1784.71 86.4855 1903.15 263.018 1812.24 433.706C1761.89 527.68 1692.01 584.667 1561.59 650.057C1600.4 690.144 1635.14 733.755 1665.32 780.287C1785.84 698.094 1867.5 597.636 1909.37 445.396C1943.89 320.188 1899.94 96.3487 1661.27 0C1663.44 4.29231 1669.57 18.5391 1670.79 21.3702Z" fill="#E7EAEF"/>
</g>
</svg>
