<svg width="28" height="28" viewBox="0 0 28 28" fill="none" xmlns="http://www.w3.org/2000/svg">
<path d="M6 0C4.4087 0 2.88258 0.632141 1.75736 1.75736C0.632141 2.88258 0 4.4087 0 6V22C0 23.5913 0.632141 25.1174 1.75736 26.2426C2.88258 27.3679 4.4087 28 6 28H22C23.5913 28 25.1174 27.3679 26.2426 26.2426C27.3679 25.1174 28 23.5913 28 22V6C28 4.4087 27.3679 2.88258 26.2426 1.75736C25.1174 0.632141 23.5913 0 22 0H6ZM2 6C2 4.93913 2.42143 3.92172 3.17157 3.17157C3.92172 2.42143 4.93913 2 6 2H22C23.0609 2 24.0783 2.42143 24.8284 3.17157C25.5786 3.92172 26 4.93913 26 6V22C26 23.0609 25.5786 24.0783 24.8284 24.8284C24.0783 25.5786 23.0609 26 22 26H6C4.93913 26 3.92172 25.5786 3.17157 24.8284C2.42143 24.0783 2 23.0609 2 22V6ZM20.708 10.708C20.8958 10.5202 21.0013 10.2656 21.0013 10C21.0013 9.73445 20.8958 9.47977 20.708 9.292C20.5202 9.10423 20.2656 8.99874 20 8.99874C19.7344 8.99874 19.4798 9.10423 19.292 9.292L12 16.586L8.708 13.292C8.61502 13.199 8.50465 13.1253 8.38317 13.075C8.26169 13.0246 8.13149 12.9987 8 12.9987C7.86851 12.9987 7.73831 13.0246 7.61683 13.075C7.49535 13.1253 7.38498 13.199 7.292 13.292C7.19902 13.385 7.12527 13.4954 7.07495 13.6168C7.02463 13.7383 6.99874 13.8685 6.99874 14C6.99874 14.1315 7.02463 14.2617 7.07495 14.3832C7.12527 14.5046 7.19902 14.615 7.292 14.708L11.292 18.708C11.3849 18.8011 11.4952 18.875 11.6167 18.9254C11.7382 18.9758 11.8685 19.0018 12 19.0018C12.1315 19.0018 12.2618 18.9758 12.3833 18.9254C12.5048 18.875 12.6151 18.8011 12.708 18.708L20.708 10.708Z" fill="#3DAE2B"/>
</svg>
