<svg width="37" height="36" viewBox="0 0 37 36" fill="none" xmlns="http://www.w3.org/2000/svg">
<path d="M29 9H24.5V7.5C24.5 6.70435 24.1839 5.94129 23.6213 5.37868C23.0587 4.81607 22.2956 4.5 21.5 4.5H15.5C14.7044 4.5 13.9413 4.81607 13.3787 5.37868C12.8161 5.94129 12.5 6.70435 12.5 7.5V9H8C6.80653 9 5.66193 9.47411 4.81802 10.318C3.97411 11.1619 3.5 12.3065 3.5 13.5V27C3.5 28.1935 3.97411 29.3381 4.81802 30.182C5.66193 31.0259 6.80653 31.5 8 31.5H29C30.1935 31.5 31.3381 31.0259 32.182 30.182C33.0259 29.3381 33.5 28.1935 33.5 27V13.5C33.5 12.3065 33.0259 11.1619 32.182 10.318C31.3381 9.47411 30.1935 9 29 9ZM15.5 7.5H21.5V9H15.5V7.5ZM30.5 27C30.5 27.3978 30.342 27.7794 30.0607 28.0607C29.7794 28.342 29.3978 28.5 29 28.5H8C7.60218 28.5 7.22064 28.342 6.93934 28.0607C6.65804 27.7794 6.5 27.3978 6.5 27V18.585L13.52 21C13.6793 21.0216 13.8407 21.0216 14 21H23C23.1627 20.997 23.3242 20.9718 23.48 20.925L30.5 18.585V27ZM30.5 15.42L22.76 18H14.24L6.5 15.42V13.5C6.5 13.1022 6.65804 12.7206 6.93934 12.4393C7.22064 12.158 7.60218 12 8 12H29C29.3978 12 29.7794 12.158 30.0607 12.4393C30.342 12.7206 30.5 13.1022 30.5 13.5V15.42Z" fill="#464E4C"/>
</svg>
