<svg width="16" height="16" viewBox="0 0 16 16" fill="none" xmlns="http://www.w3.org/2000/svg">
<path d="M13.3542 13.8591C13.6609 14.1657 14.1342 13.6924 13.8276 13.3924L11.3276 10.8857C12.2045 9.9154 12.6893 8.65362 12.6876 7.34573C12.6876 4.41906 10.3076 2.03906 7.38089 2.03906C4.45422 2.03906 2.07422 4.41906 2.07422 7.34573C2.07422 10.2724 4.45422 12.6524 7.38089 12.6524C8.70089 12.6524 9.92089 12.1657 10.8542 11.3591L13.3542 13.8591ZM2.74022 7.34573C2.74022 4.78573 4.82689 2.70573 7.38022 2.70573C9.94022 2.70573 12.0202 4.78573 12.0202 7.34573C12.0202 9.90573 9.94022 11.9857 7.38022 11.9857C4.82689 11.9857 2.74022 9.90573 2.74022 7.34573Z" fill="white"/>
</svg>
