<svg width="16" height="26" viewBox="0 0 16 26" fill="none" xmlns="http://www.w3.org/2000/svg">
<path d="M0.619725 21.9458C0.417553 22.1247 0.258665 22.3366 0.152343 22.5692C0.0460203 22.8018 -0.00560549 23.0503 0.000482019 23.3003C0.00656953 23.5503 0.0702484 23.7968 0.187798 24.0253C0.305347 24.2538 0.47441 24.4597 0.685112 24.6311C0.895814 24.8025 1.14393 24.9359 1.41496 25.0236C1.686 25.1112 1.97452 25.1512 2.26368 25.1414C2.55283 25.1316 2.83682 25.072 3.09905 24.9663C3.36128 24.8606 3.5965 24.7107 3.79097 24.5256L15.4073 13.8601C15.7879 13.5116 16 13.0506 16 12.5714C16 12.0922 15.7879 11.6312 15.4073 11.2828L3.79097 0.617302C3.5965 0.432123 3.36128 0.282287 3.09905 0.176548C2.83682 0.0708083 2.55283 0.0112851 2.26368 0.00145491C1.97452 -0.00837524 1.686 0.031685 1.41496 0.119295C1.14393 0.206906 0.895814 0.34031 0.685112 0.511715C0.47441 0.683119 0.305347 0.889088 0.187798 1.11759C0.0702484 1.34609 0.00656953 1.59254 0.000482019 1.84255C-0.00560549 2.09256 0.0460203 2.34111 0.152343 2.57368C0.258665 2.80625 0.417553 3.01818 0.619725 3.19709L10.8304 12.5702L0.619725 21.9458Z" fill="#5CB85C"/>
</svg>
