<svg width="16" height="16" viewBox="0 0 16 16" fill="none" xmlns="http://www.w3.org/2000/svg">
<path d="M13.3542 13.86C13.6609 14.1667 14.1342 13.6934 13.8276 13.3934L11.3276 10.8867C12.2045 9.91638 12.6893 8.6546 12.6876 7.34671C12.6876 4.42004 10.3076 2.04004 7.38089 2.04004C4.45422 2.04004 2.07422 4.42004 2.07422 7.34671C2.07422 10.2734 4.45422 12.6534 7.38089 12.6534C8.70089 12.6534 9.92089 12.1667 10.8542 11.36L13.3542 13.86ZM2.74022 7.34671C2.74022 4.78671 4.82688 2.70671 7.38022 2.70671C9.94022 2.70671 12.0202 4.78671 12.0202 7.34671C12.0202 9.90671 9.94022 11.9867 7.38022 11.9867C4.82688 11.9867 2.74022 9.90671 2.74022 7.34671Z" fill="#464E4C"/>
</svg>
