<svg width="14" height="14" viewBox="0 0 14 14" fill="none" xmlns="http://www.w3.org/2000/svg">
<path d="M13.4216 10.3616L12.0237 8.9638C11.7707 8.71095 11.4538 8.53151 11.1069 8.44461C10.7599 8.35771 10.3959 8.36662 10.0536 8.47037C9.71125 8.57413 9.40353 8.76884 9.16321 9.03376C8.92288 9.29867 8.75897 9.62384 8.68895 9.97459C6.38382 9.54357 4.14187 7.31087 4.00232 5.31527C4.3942 5.24319 4.75486 5.05352 5.03633 4.77149C5.40693 4.40085 5.61513 3.89819 5.61513 3.37406C5.61513 2.84993 5.40693 2.34726 5.03633 1.97662L3.63886 0.578784C3.26821 0.208192 2.76553 0 2.24138 0C1.71724 0 1.21456 0.208192 0.843912 0.578784C-3.34891 4.77149 9.22875 17.3488 13.4216 13.1561C13.7919 12.7854 14 12.2829 14 11.7589C14 11.2349 13.7919 10.7323 13.4216 10.3616Z" fill="#004290"/>
</svg>
